<?xml version="1.0" standalone="no"?>
<svg style="width: 390px; height: 390px; justify-content: center; align-self: center; transform: scale(1);" viewBox="-350 -150 1500 1500" xmlns="http://www.w3.org/2000/svg"><g transform="rotate(0 441.68455505371094 628.0793075561523)"><g transform="translate(0 459)"><path d="M298.817 752.115C238.632 750.82 183.845 754.456 125.89 742.701L125.816 740.749C113.385 740.391 117.5 728.774 119.999 720.649C-113.895 710.243 38.6643 140.153 200.749 101.822C208.689 100.468 217.315 99.7529 226.061 99.6669C237.345 96.2209 248.465 95.6099 260.261 92.4669C261.393 88.3369 261.578 85.9489 266.582 87.1719C284.543 70.0199 316.861 54.2209 327.766 87.6909C342.117 67.7439 350.347 44.4219 356.343 20.8029L357.313 20.9619C359.861 14.6819 364.033 6.73594 369.108 5.42494C377.018 2.80594 391.934 3.40994 400.534 2.34694C419.18 1.05394 440.839 -2.11506 458.712 2.16194C503.375 13.0959 484.019 65.8199 520.231 100.144C536.849 93.2649 562.896 95.1509 578.817 103.342C589.07 111.553 583.929 120.81 582.131 129.49C696.488 119.182 726.915 251.818 750.514 339.255C759.982 368.343 769.379 388.063 785.505 410.521C806.453 436.774 818.216 471.154 796.754 498.85C827.394 559.989 794.131 617.453 758.937 663.607C752.045 670.998 740.866 691.563 730.765 692.969C728.024 695.474 723.646 698.557 720.557 700.796L724.282 705.68C724.727 710.19 724.756 715.037 727.84 719.059C730.807 721.95 733.979 724.914 734.067 729.23C729.339 734.717 723.233 728.588 718.746 725.863C717.026 729.243 717.273 737.272 711.762 736.96C575.11 746.332 435.159 752.476 298.817 752.115" transform="translate(37.00013 -20.00004)" fill="#FFFFFF" stroke="none"></path><path d="M344.686 72.415C352.834 57.409 370.539 14.148 359.673 0C355.527 4.846 354.941 11.741 353.292 17.776C349.154 32.973 343.236 47.748 334.725 61.047C320.809 35.89 287.084 50.979 270.798 66.467C266.707 65.918 262.843 69.155 261.79 73.015C215.964 83.385 190.59 75.149 152.874 111.071C34.4031 203.656 -104.571 682.971 118.451 711.904C110.892 739.253 148.621 735.973 135.801 711.489C217.755 701.093 286.5 648.378 360.429 616.717C375.02 613.163 387.794 619.937 400.285 626.561C402.838 627.914 405.378 629.261 407.92 630.513L408.887 630.984C421.869 635.717 434.037 642.41 446.874 647.565C514.048 673.415 652.906 725.563 719.758 696.729C715.723 709.382 728.54 728.291 740.596 721.83C744.646 720.757 747.612 716.139 746.205 712.105L746.133 711.878C745.966 711.374 745.904 711.34 745.946 711.774L745.984 712.091C746.05 713.093 746.025 713.143 745.911 712.24L745.645 709.933C745.083 707.266 742.267 704.284 740.217 702.273L738.997 701.091C735.872 697.686 738.036 691.506 735.368 687.62C736.841 686.552 738.278 685.427 739.658 684.241C753.095 679.904 760.828 662.906 770.072 652.766L770.403 652.3C796.555 615.516 825.395 574.95 820.903 527.59C819.44 513.015 815.507 498.665 809.863 485.131C834.377 448.505 812.977 416.453 792.408 385.643C788.879 380.357 785.374 375.107 782.129 369.877C735.956 276.376 734.806 108.802 596.318 108.477C605.25 73.094 550.708 72.56 528.274 78.514C512.431 61.7136 507.155 38.9278 502.841 16.9634L502.258 13.974C489.535 30.58 506.612 77.823 522.067 92.607C462.561 105.816 400.394 95.675 344.686 72.415ZM332.549 64.35C319.416 56.291 301.235 59.724 290.599 70.219C285.886 74.422 281.795 80.104 276.428 83.406C275.759 83.817 275.073 84.097 274.384 84.273C278.081 91.263 283.731 97.964 288.507 103.729C314.117 126.091 342.947 144.871 374.633 157.227C375.93 138.217 382.508 119.755 390.026 102.289C383.018 100.177 376.109 97.746 369.324 94.995C368.46 99.566 364.175 103.096 361.465 106.644C355.316 113.845 351.218 122.65 345.363 129.976C338.841 136.811 327.76 128.094 332.447 120.011C340 108.983 349.761 99 361.101 91.491C353.626 88.137 346.498 84.19 339.604 79.774C339.312 80.078 339.011 80.368 338.706 80.648C338.245 77.802 334.328 78.551 332.245 79.017C331.177 78.1123 329.834 78.6788 328.549 79.221C328.049 79.4321 327.557 79.6395 327.094 79.755C326.852 79.315 326.649 78.85 326.505 78.362C318.016 86.747 311.631 100.026 300.678 105.033C296.166 106.278 290.934 101.798 292.654 97.01C295.551 89.658 319.055 74.055 326.819 69.932C325.12 67.46 326.479 66.239 329.233 66.606C329.706 66.014 330.431 65.831 331.186 66.333C331.665 65.689 332.114 65.023 332.549 64.35ZM191.063 98.882C212.944 85.222 239.561 88.064 263.418 81.469L265.222 84.6352C325.395 187.11 534.046 240.603 595.237 111.925C738.642 130.092 707.06 317.197 779.464 406.304C788.769 418.518 799.301 432.812 799.027 448.88C797.402 465.963 788.008 481.192 782.677 497.332C780.212 503.012 786.634 509.048 791.658 504.261C795.278 500.811 799.019 497.478 802.505 493.911C802.655 496.486 802.822 499.059 802.989 501.633C803.734 513.094 804.478 524.552 803.671 536.059C799.335 579.473 769.763 614.913 743.89 648.38L741.501 651.48C727.019 670.149 716.047 680.6 691.652 684.764C624.901 688.653 558.682 667.699 494.626 647.429C482.536 643.603 470.522 639.801 458.597 636.196C443.421 630.892 428.334 625.341 413.143 620.083C402.472 614.352 391.871 607.452 380.084 604.349C441.332 570.599 506.372 545.319 572.856 524.036C604.058 541.53 643.809 551.844 677.976 537.494C682.067 535.69 684.997 528.82 683.221 524.602C674.06 502.83 674.372 479.007 674.679 455.503C674.79 447.017 674.9 438.573 674.564 430.282C671.654 393.087 662.88 356.553 657.886 319.592C654.095 298.4 652.812 276.587 646.067 256.152C646.023 255.68 645.308 255.661 645.317 256.152C645.361 258.497 644.775 260.647 644.186 262.81C643.736 264.461 643.283 266.12 643.107 267.88C640.836 303.094 644.4 338.017 647.964 372.93C651.484 407.417 655.001 441.883 652.895 476.607C639.201 467.601 625.635 459.717 610.02 455.094C604.048 437.529 565.309 433.873 551.266 442.805C539.192 443.634 527.819 444.721 515.924 446.102C492.096 420.444 347.972 416.168 313.645 428.374C310.905 428.05 307.777 427.587 304.395 427.087C280.017 423.481 242.383 417.914 240.819 448.034C223.334 448.785 205.932 453.241 189.874 462.022C195.567 446.746 194.282 430.693 197.252 414.984C197.369 411.448 198.07 406.352 198.857 400.631C200.947 385.441 203.643 365.852 197.601 359.417C186.766 369.944 185.919 397.961 182.035 412.925C181.407 418.875 180.119 424.734 178.833 430.587C176.67 440.423 174.512 450.242 175.493 460.454C174.468 464.786 173.1 469.02 172.348 473.4C158.091 483.723 145.002 496.868 134.349 510.833C123.746 525.956 117.901 544.126 117.747 562.589C119.902 580.171 147.92 558.285 159.679 549.099C161.024 548.048 162.157 547.163 163.014 546.523L163.491 546.171C162.154 550.031 160.407 553.835 158.655 557.65C154.495 566.711 150.306 575.832 151.51 585.911C159.108 613.218 183.857 591.295 195.138 578.644L195.811 577.882C200.018 606.338 234.221 600.765 248.048 582.257C263.353 564.883 288.898 538.801 294.01 516.407C381.798 492.533 469.628 462.874 561.239 459.059C567.338 475.22 572.116 492.258 570.011 509.545C420.681 528.171 303.336 637.519 162.917 683.005C106.967 702.43 57.8101 678.452 37.8401 622.531C-1.69887 499.609 35.9091 365.114 82.8971 249.429L83.5965 247.701C106.753 190.659 137.536 132.576 191.063 98.882ZM555.011 88.652C556.532 90.445 557.048 93.061 556.493 95.411C563.153 105.58 566.812 117.092 570.159 128.528L571.096 127.365C586.27 108.402 594.875 91.2078 561.526 89.335C559.358 89.028 557.184 88.8 555.011 88.652ZM251.878 118.507C268.955 106.208 209.679 95.2156 237.227 115.336C241.585 118.292 246.623 120.415 251.878 118.507ZM508.995 110.95C519.857 109.42 530.637 107.281 541.232 104.43C547.556 113.694 556.662 120.743 565.686 127.349L569.061 129.809C554.212 147.185 536.314 162.592 513.674 168.139C513.606 150.065 508.916 132.62 506.536 114.889C508.055 114.252 509.038 112.658 508.995 110.95ZM407.112 106.771C407.016 108.255 406.595 109.723 405.9 110.963C396.744 126.824 388.706 143.374 379.028 158.899C399.914 166.636 421.862 171.681 444.007 173.675C441.889 160.891 442.301 147.946 442.714 135C442.953 127.493 443.191 119.986 442.937 112.51C430.892 111.354 418.92 109.43 407.112 106.771ZM460.743 113.651C471.372 113.995 482.018 113.725 492.62 112.825C497.631 131.848 500.811 151.279 508.139 169.639C488.412 174.647 467.87 175.485 447.63 173.991C448.612 170.775 449.639 167.573 450.364 164.276C453.126 150.175 454.121 135.75 456.309 121.553C460.961 122.261 462.381 117.158 460.743 113.651ZM167.17 137.839C165.5 138.028 163.85 138.215 162.284 138.208C161.228 138.203 160.792 139.474 161.456 140.209C168.282 149.898 185.699 147.133 178.671 139.089C175.298 136.919 171.175 137.386 167.17 137.839ZM228.406 203.034C237.31 197.014 231.971 182.454 220.929 185.298C211.083 188.292 184.861 205.474 179.613 214.007C182.118 218.804 223.953 206.852 228.406 203.034ZM650.432 185.746C656.498 184.98 659.698 184.576 660.27 185.617C660.91 186.779 658.268 189.745 652.675 196.024C650.661 198.286 648.264 200.977 645.5 204.169C632.753 215.357 619.836 192.437 635.701 187.337C641.762 186.841 646.653 186.223 650.432 185.746ZM323.85 215.757C313.201 212.892 334.974 258.382 340.96 259.076C348.367 264.149 357.623 255.786 355.549 247.861C350.284 234.568 337.274 224.611 325.475 216.822L323.85 215.757ZM474.885 240.363C475.747 239.972 476.508 241.198 475.642 241.659C471.944 243.622 467.928 247.778 465.604 251.285C457.646 261.238 448.232 243.65 460.463 242.328C464.925 242.649 470.791 242.218 474.885 240.363ZM540.289 267.722C532.215 261.354 532.135 293.963 545.693 295.907C550.21 297.283 556.045 292.438 554.025 287.575C550.029 280.484 543.041 275.719 540.289 267.722ZM134.052 288.69C135.989 288.987 140.659 287.126 145.795 285.079C155.931 281.039 167.885 276.275 164.247 285.94C160.68 290.022 156.164 290.12 151.102 290.497L150.964 290.484C150.362 290.445 148.885 290.536 147.028 290.649C140.875 291.027 130.554 291.66 134.052 288.69ZM420.579 307.624C424.585 300.355 433.792 292.643 442.627 293.274C448.046 293.094 450.163 300.887 445.389 303.474L445.23 303.541C442.233 304.737 419.503 310.57 420.579 307.624ZM270.575 318.136C270.143 312.028 276.956 309.844 281.549 311.839C289.745 315.4 296.097 328.499 293.503 336.971C291.415 345.375 278.695 347.235 274.653 339.435C272.329 332.233 272.016 325.357 270.575 318.136ZM702.517 326.482C699.225 327.675 695.959 328.857 692.747 329.537C687.45 334.525 722.29 335.803 723.561 330.062C725.81 327.573 724.715 324.145 721.701 323.012C715.331 321.842 708.874 324.18 702.517 326.482ZM168.188 355.298C171.489 347.147 159.431 347.364 154.663 349.779C153.786 350.523 151.291 350.729 148.755 350.938C144.672 351.275 140.481 351.621 142.753 354.236C149.958 359.699 161.756 363.827 168.188 355.298ZM591.543 364.445L591.284 364.47C582.891 366.292 581.408 378.868 588.798 383.077C598.523 387.857 605.294 377.261 610.572 369.002C611.537 367.492 612.452 366.06 613.326 364.815L613.67 364.331C613.708 360.73 601.923 362.73 595.211 363.869C593.636 364.136 592.341 364.356 591.543 364.445ZM466.071 363.814C468.693 358.981 473.682 366.831 476.704 371.587C477.507 372.851 478.172 373.896 478.616 374.427C481.626 381.167 472.942 386.423 468.659 380.247C466 375.43 464.817 369.222 466.071 363.814ZM352.757 384.707C351.566 382.435 353.898 383.155 356.201 383.867C357.564 384.288 358.916 384.705 359.523 384.499C362.556 384.685 365.295 385.308 367.011 388.036C369.76 392.411 364.419 397.101 360.212 394.835C356.152 392.592 357.128 386.741 352.757 384.707ZM56.2436 440.909L56.3329 440.672C59.2739 432.413 77.0229 420.163 85.8399 423.371C86.2519 423.352 86.6599 423.754 86.6359 424.168L86.7799 425.192C87.2762 428.823 87.5323 432.377 85.1359 435.616C80.8449 442.531 76.7479 451.148 68.4949 453.845C60.3621 456.423 53.3955 448.71 56.2436 440.909ZM498.149 448.565C443.885 429.109 384.743 429.679 327.819 431.491L329.316 431.942C353.857 439.387 382.591 450.955 395.382 473.845C428.913 462.909 463.223 453.854 498.149 448.565ZM750.397 464.251C731.402 475.399 717.653 423.201 741.593 434.413L743.3 436.242C750.235 443.727 760.957 456.38 750.397 464.251ZM282.042 437.322L284.753 437.465C281.543 441.674 278.942 446.472 277.357 451.245C266.765 448.992 256.085 447.841 245.585 447.913C251.603 435.622 269.227 436.606 281.659 437.3L282.042 437.322ZM285.706 453.177C291.85 448.304 298.914 444.733 304.981 439.809C317.516 441.837 330.045 445.068 341.734 449.909C331.988 452.855 322.783 457.033 315.129 463.596C305.735 459.13 295.807 455.735 285.706 453.177ZM563.288 443.641C579.192 442.53 595.447 449.141 603.796 463.926C593.254 462.63 582.739 463.512 573.971 469.629C571.542 464.953 568.792 460.426 565.863 456.085C568.172 453.694 568.216 448.911 565.604 446.735C564.141 445.516 562.513 444.658 560.782 444.051L563.288 443.641ZM324.821 468.619C334.272 463.426 354.901 467.66 358.036 458.018C367.097 463.414 375.397 470.06 382.62 478.13C370.431 482.331 358.31 486.773 346.287 491.467C344.598 481.91 334.738 474.393 325.657 469.101L324.821 468.619ZM187.759 471.724C234.327 448.386 296.643 458.148 331.19 497.487C317.482 501.33 302.486 502.283 290.05 510.413C282.627 508.899 278.136 516.231 274.148 522.742C272.769 524.993 271.45 527.146 270.09 528.802C268.058 531.37 265.547 534.874 262.688 538.862C250.382 556.035 231.64 582.189 216.955 581.242C211.34 579.944 212.109 575.616 213.419 570.889L214.472 567.141C218.379 553.408 222.773 539.787 226.891 526.12C230.003 515.795 214.397 511.738 210.891 521.71C202.552 544.96 187.72 566.37 167.622 580.919C172.994 557.101 185.824 534.857 194.209 511.809C196.807 503.649 184.603 498.556 180.354 505.97C167.431 524.03 151.048 538.483 132.399 550.018C135.543 522.866 152.956 499.02 173.412 481.609C171.826 482.012 170.255 482.486 168.704 483.047C174.88 479.365 180.899 473.734 187.759 471.724ZM632.829 509.694C630.777 492.108 626.205 473.999 614.623 460.141C631.471 469.17 643.48 483.795 653.926 499.372C654.644 506.505 655.825 513.579 657.734 520.448C649.996 522.003 641.854 521.701 633.947 520.54C634.076 517.821 633.631 514.957 633.205 512.216C633.071 511.361 632.94 510.517 632.829 509.694ZM576.1 473.954C588.404 473.181 598.89 476.077 610.331 480.708C611.642 486.137 612.43 491.699 612.961 497.251C608.292 497.357 603.762 499.716 598.854 499.968C594.016 500.218 588.339 499.817 583.329 498.397C582.368 489.976 579.739 481.778 576.1 473.954ZM501.5 484.616C508.738 481.722 519.396 489.699 511.457 495.95C505.677 499.876 497.77 494.611 493.078 491.024C490.492 488.054 499.239 485.155 501.5 484.616ZM583.724 504.219C583.759 506.125 583.696 508.04 583.542 509.964C593.784 511.167 603.873 513.737 613.897 516.237L613.832 513.193C613.81 512.171 613.785 511.146 613.751 510.137C603.843 512.808 591.67 510.042 583.724 504.219ZM361.053 539.476C369.088 531.427 346.511 515.888 344.073 527.316C344.724 534.626 353.428 545.307 361.053 539.476ZM72.0947 528.91C93.2897 515.112 95.8437 548.525 64.5037 538.764C62.4357 535.636 66.903 532.557 70.0889 530.361C70.8745 529.82 71.5822 529.332 72.0947 528.91ZM729.519 560.399C731.583 558.606 734.114 557.367 736.854 558.28L737.12 558.376C745.402 561.273 738.982 572.606 731.88 568.619C729.467 566.81 726.846 565.289 723.968 564.298C722.905 563.204 724.866 562.479 726.77 561.775C727.957 561.336 729.123 560.906 729.519 560.399ZM529.355 604.987C533.852 602.555 533.672 566.735 526.088 576.848C525.623 578.141 525.119 579.452 524.609 580.778C521.734 588.252 518.68 596.191 521.387 603.945C522.626 607.49 527.279 608.264 529.355 604.987ZM167.252 583.152L167.088 583.76C166.246 587.046 168.226 582.711 167.463 583.35C167.395 583.278 167.323 583.216 167.252 583.152ZM245.481 615.437C230.382 606.479 263.434 594.414 264.675 609.026C265.16 618.944 251.771 618.416 245.481 615.437ZM671.073 626.51C683.499 619.577 659.526 598.466 655.501 605.807C654.891 608.068 655.924 610.41 656.878 612.576C657.14 613.17 657.396 613.75 657.611 614.313C659.438 620.552 662.659 630.947 671.073 626.51ZM102.706 623.856C103.31 606.316 131.228 629.153 128.65 638.726C127.086 651.956 111.041 645.776 107.408 636.843C105.153 632.757 103.254 628.511 102.706 623.856ZM397.224 705.108C385.292 698.698 382.324 669.454 401.692 683.512C418.924 689.639 414.19 711.56 397.224 705.108ZM526.747 695.974C514.038 683.572 506.61 690.669 515.071 706.596C522.785 718.949 538.35 704.727 526.747 695.974ZM272.367 718.289C260.476 708.87 278.543 694.018 288.837 700.006C290.167 701.634 289.017 701.901 287.33 702.293C284.985 702.837 281.604 703.622 282.404 708.633C284.406 714.359 278.43 721.98 272.367 718.289Z" transform="translate(31.00027 0.9996)" fill="#000000" fill-rule="evenodd" stroke="none"></path></g><g transform="translate(225 0)"><g><g><path d="M340.529 155.003C338.376 136.088 341.162 96.5517 341.348 94.1497C342.529 78.9648 335.414 19.0018 321.964 24.5268C299.401 6.66576 269.351 2.72176 241.251 0.837757C182.883 -3.07624 120.791 5.90876 75.7204 45.1888C53.4316 65.5878 31.7323 95.2567 33.4765 126.149C13.2256 155.431 -15.3236 195.598 9.90814 229.831C18.4849 240.768 32.1161 244.841 42.8905 253.124C64.5622 270.604 78.1586 295.69 100.036 313.066C157.996 365.149 256.413 376.029 313.359 316.789C357.394 273.885 350.274 209.699 342.529 155.003C337.321 118.23 344.728 191.904 340.529 155.003Z" transform="translate(65.0005 149)" fill="#FFFFFF" stroke="none"></path><path d="M227.86 0.104592C211.919 -0.485408 195.89 1.47459 180.28 4.62459C149.299 10.8646 117.57 21.0746 89.509 35.7146C77.727 41.8646 66.8569 49.4596 57.054 58.2086C48.193 53.9716 34.213 53.6276 31.373 63.3436C30.558 66.1326 30.964 68.6606 32.134 70.8226C31.793 71.0166 31.456 71.2246 31.126 71.4456C28.8908 72.9424 27.6975 74.0315 26.3137 75.4062L25.221 76.5016C21.761 79.9726 21.434 86.3956 25.221 89.8226L25.739 90.2906L26.0576 90.5686C26.7029 91.1105 27.3954 91.5689 28.118 91.9486C14.847 112.287 5.83895 135.465 2.10995 159.685C-0.0810489 173.905 -0.720049 188.125 0.929951 202.435C1.72995 209.425 2.92995 216.885 5.37895 223.495C6.56995 226.725 8.24895 229.865 9.75895 232.965C11.4 236.345 14.089 238.815 16.299 241.835C16.539 242.145 16.919 242.305 17.289 242.315C16.62 243.695 16.009 245.095 15.44 246.485C12.169 254.475 9.64995 263.085 8.18995 271.595C5.43995 287.645 7.11995 305.695 19.339 317.705C24.209 322.485 31.749 326.315 39.16 327.335C36.789 329.775 34.879 332.675 33.35 336.015C30.49 342.245 35.259 350.675 42.839 348.355C44.28 347.915 45.709 347.355 47.11 346.735C49.289 351.065 53.95 353.995 58.95 353.245C61.86 352.805 63.959 351.675 65.4 350.085C69.009 358.065 73.799 365.315 79.8699 371.715C86.2889 378.495 93.379 384.605 99.7799 391.405C105.999 398.005 109.69 406.625 117.02 412.065C119.299 413.755 122.79 411.955 123.43 409.455C125.915 399.726 119.222 391.626 112.872 384.935L112.07 384.095C105.259 377.015 97.39 371.105 90.14 364.505C82.61 357.645 76.549 350.365 71.089 341.765C70.6174 341.025 70.1472 340.27 69.6753 339.507L67.53 336.025C67.419 335.515 67.299 335.015 67.16 334.525C67.049 332.555 66.39 330.685 65.1199 328.965C63.549 326.835 61.45 325.225 59.11 324.475C58.32 323.635 57.499 322.835 56.64 322.095C57.709 320.925 58.65 319.545 59.45 317.945C60.93 314.965 59.2 310.225 55.24 310.615C54.0504 310.729 52.8818 310.675 51.7142 310.621C50.4369 310.562 49.1608 310.503 47.86 310.665C47.5484 310.704 47.237 310.745 46.9256 310.786C44.7888 311.069 42.6557 311.351 40.499 311.055C36.07 310.425 32.1 308.025 29.22 304.665C22.009 296.265 21.249 284.185 22.759 273.705C23.4263 269.026 24.5669 264.428 25.7788 259.855L27.6525 252.851C28.7204 248.937 30.007 244.881 32.52 241.695C40.4061 231.694 53.9178 239.542 62.0054 245.562L62.74 246.115C62.81 246.165 62.87 246.185 62.94 246.185C63.37 246.885 63.83 247.575 64.31 248.235C66.959 251.815 70.169 254.995 73.4799 257.995L74.1553 258.611C74.6084 259.02 75.066 259.425 75.52 259.825C79.39 263.235 84.629 260.725 85.14 255.845C86.089 246.645 85.83 237.345 86.419 228.105C87.0089 218.855 88.07 209.635 89.6499 200.505C91.2299 191.385 93.27 182.355 95.759 173.455C97.009 168.995 98.379 164.585 99.839 160.195C100.95 156.815 101.78 151.335 104.709 148.985C107.36 146.845 112.35 146.485 115.6 145.795C120.14 144.825 124.709 143.965 129.259 142.995C137.77 141.165 146.27 139.175 154.65 136.815C162.95 134.475 171.18 131.715 179.15 128.395C176.86 132.235 174.589 136.085 172.339 139.945C169.259 145.235 173.299 150.885 178.89 151.355C184.629 151.835 190.44 151.405 196.039 150.045C197.23 149.755 198.32 149.425 199.33 149.035C205.479 148.594 211.755 147.191 217.533 145.767L220.23 145.095C231.209 142.335 241.759 138.565 252.16 134.115C253.325 133.617 254.491 133.109 255.657 132.592C259.971 131.29 264.22 129.777 268.386 128.056C283.831 130.393 299.585 129.487 314.759 125.755C321.31 124.145 328.43 122.125 335.2 119.325C338.57 125.075 343.74 129.735 349.509 133.115C350.14 138.105 350.49 143.145 350.72 148.145C351.459 164.085 352.299 180.025 353.169 195.955L353.449 201.113C355.094 232.07 356.102 263.076 356.339 294.065C356.56 322.305 354.83 350.185 339.53 374.745C326.64 395.465 306.53 411.955 283.18 419.355C268.839 423.895 253.64 425.355 238.669 423.905C231.36 423.195 224.12 421.525 217.129 419.285L216.124 418.968C209.105 416.802 202.421 415.732 195.1 414.845C190.259 414.255 189.089 420.535 191.52 423.485C196.66 429.705 202.15 433.855 209.789 436.675C216.69 439.215 224.009 440.825 231.28 441.875C246.28 444.035 261.41 443.795 276.23 440.405C303.73 434.125 328.039 417.605 344.97 395.195C363.56 370.585 369.549 341.165 369.94 310.855C370.361 278.421 368.752 245.831 366.61 213.451L366.16 206.755C365.2 192.745 364.18 178.685 362.589 164.705C365.22 164.965 367.98 164.145 370.22 161.895C374.584 157.531 375.617 150.814 376.136 144.748L376.27 143.075C376.69 137.485 375.839 131.765 374.31 126.395C372.202 119.041 368.668 112.849 363.676 107.664C370.362 100.458 373.963 90.2596 374.757 80.6316C375.33 73.6936 375.863 64.5746 368.207 61.3416C366.695 60.7026 365.13 60.4666 363.556 60.4996C363.96 58.0286 364.233 55.5276 364.386 52.9966C364.631 48.9726 360.502 44.5616 356.369 44.9776C355.113 45.1046 353.857 45.2396 352.601 45.3706C353.352 44.1696 354.106 42.9716 354.88 41.7856C358.134 36.8086 353.736 31.2596 348.597 30.8346C334.938 29.7056 321.418 26.9046 308.386 22.6616C295.294 18.3976 281.618 14.1066 269.184 8.17159C268.306 7.75259 267.338 8.06259 266.736 8.66659C256.273 1.69209 241.083 0.631691 229.089 0.152327L227.86 0.104592ZM50.9901 264.032C46.347 261.873 40.0585 258.949 35.2303 260.525C33.0202 261.245 32.3693 263.585 33.3693 265.305L33.2892 265.305L33.4965 265.636C34.4149 267.034 35.5933 267.982 36.8854 268.882L37.4893 269.295C35.8693 270.445 34.6292 272.105 34.0892 274.225C33.2202 277.595 34.6292 281.735 37.8293 283.425C39.1103 284.095 40.4992 284.465 41.9492 284.535C43.9947 284.625 45.7013 283.683 47.2494 282.505L47.7093 282.145C48.3903 281.605 48.9403 280.885 49.3792 280.105C53.1103 284.925 56.2493 290.615 62.8392 290.795C65.9893 290.885 69.5493 288.375 70.1992 285.185C70.2702 284.875 70.3293 284.565 70.3903 284.265C70.9993 281.275 70.5602 277.775 68.1102 275.635C63.1903 271.355 58.1103 267.305 52.1403 264.565C51.7701 264.395 51.3861 264.216 50.9901 264.032Z" transform="translate(48.00005 65.00051)" fill="#000000" fill-rule="evenodd" stroke="none"></path></g></g><g transform="translate(159 186)"><g><path d="M175.373 49.5872C175.699 49.4437 175.991 49.2049 176.203 48.8583C178.978 44.3099 179.267 38.8813 178.039 33.5637C176.563 27.172 172.899 20.9588 168.944 16.7559C163.959 11.4582 157.895 7.75374 151.246 4.94731C150.762 4.74287 150.267 4.53098 149.763 4.31514C142.964 1.40541 134.597 -2.01031 127.865 1.47064C125.161 2.86951 123.673 5.20381 123.256 7.7496C122.814 10.4534 123.597 13.4099 125.462 15.7216C128.557 19.5594 133.339 20.3533 138.087 21.0465C139.602 21.2677 141.106 21.486 142.53 21.8229C147.429 22.9821 152.604 24.4361 157.104 26.7244C166.253 31.3762 170.54 38.5898 172.747 48.2853C172.837 48.6781 173.037 48.9988 173.3 49.2406C173.575 49.4928 173.921 49.6579 174.285 49.7192C174.651 49.7808 175.032 49.7375 175.373 49.5872ZM58.3942 19.1934C55.0693 22.4329 51.1339 22.9347 47.1526 23.381C44.9405 23.6313 43.1746 23.8331 41.4369 24.2252C36.6605 25.3034 31.9393 26.9272 27.6319 29.2659C23.1292 31.7106 18.2224 34.659 14.6922 38.4361C13.8528 39.3349 13.0615 40.278 12.2691 41.2232C11.5465 42.0851 10.8505 42.9149 10.1169 43.7149C9.27449 44.6339 8.47449 45.597 7.67875 46.5576C7.1867 47.3681 7.0895 47.5675 6.99041 47.775C6.8413 48.0869 6.66786 48.4359 6.46976 48.8103C6.19845 49.323 5.88066 49.8843 5.54784 50.3932C4.9941 51.3234 4.69697 51.5796 4.44022 51.6942C4.01419 51.8839 3.61015 51.9774 3.21817 51.9268C2.85064 51.8793 2.50438 51.7028 2.16244 51.4138C0.455387 49.9715 -0.0480658 47.6046 0.00353523 45.092C0.0818393 41.2793 1.48813 37.0578 2.78452 34.4628C5.79888 28.4331 9.97938 22.1649 15.0062 17.6646C20.7422 12.5276 27.0177 8.63869 34.2256 5.95894C38.705 4.29304 43.8913 2.76391 48.7713 2.95706C52.284 3.09609 55.6373 4.14026 58.4066 6.74782C60.1072 8.34853 60.9235 10.6254 60.9235 12.9006C60.9235 15.2211 60.0757 17.5554 58.3942 19.1934ZM164.634 78.3299C166.478 78.8824 167.779 78.6212 169.441 77.7551C170.719 77.0896 171.589 76.0387 172.088 74.8117C172.599 73.5559 172.706 72.1077 172.454 70.7659C171.405 65.1948 168.042 60.2513 163.503 57.0672C159.091 53.9728 153.589 52.5435 148.048 53.7341C144.003 54.6036 138.007 58.4424 134.85 63.1243C133.504 65.1203 132.671 67.2595 132.581 69.3723C132.495 71.387 133.008 73.4183 135.676 76.096C135.935 76.177 136.208 76.2208 136.477 76.2208C137.138 76.2208 137.821 75.9439 138.274 75.5441C139.469 74.4935 140.311 73.1636 141.178 71.7329C141.641 70.9679 142.102 70.1976 142.69 69.5195C144.449 67.4927 147.002 65.7736 149.683 65.3262C152.167 64.911 154.406 65.6469 156.181 67.0355C158.256 68.6601 159.713 71.1522 160.252 73.8146C160.472 74.8933 161.036 75.8657 161.818 76.6477C162.607 77.4367 163.615 78.0237 164.634 78.3299ZM46.1749 69.1109C43.7479 67.5587 40.8928 67.0259 37.7287 68.4655C35.256 69.5899 30.9192 73.3385 27.9011 78.2662C25.8363 81.6374 24.3721 85.5922 24.6769 89.7117C24.7477 90.6684 24.3942 91.3738 23.8366 91.8954C23.3962 92.3073 22.7601 92.61 22.013 92.7047C21.3786 92.785 20.6686 92.7125 20.0913 92.5324C18.9931 92.1896 18.4119 91.4772 18.1929 90.8957C16.0797 85.2836 16.9901 79.0208 19.3585 73.3707C22.5547 65.7456 28.3592 59.3585 32.1622 57.2993C38.6698 53.7742 46.347 53.612 52.8639 57.2031C58.4114 60.2596 61.8802 65.1942 65.3301 70.2242C66.0635 71.2934 66.7914 72.3548 67.5436 73.3976C69.0513 75.487 69.2013 77.5593 68.6175 79.3363C67.9707 81.3049 66.3215 82.9663 64.2592 83.8357C62.353 84.6393 60.1407 84.7524 58.1831 83.9268C56.5293 83.2293 55.0117 81.8695 54.0513 79.5625C52.434 75.6771 49.7393 71.3904 46.1749 69.1109ZM127.748 115.98C135.872 104.601 124.366 93.898 116.814 89.3079C114.836 87.8879 116.406 83.1842 120.634 83.9112C159.031 90.5082 139.136 156.649 90.112 120.354C84.2754 115.645 91.3434 105.275 97.6342 109.307C97.9532 109.552 98.2876 109.81 98.6364 110.08C105.704 115.544 118.636 125.542 127.748 115.98ZM117.042 185.1C109.675 187.233 101.768 187.424 94.2589 185.221C87.4481 183.222 80.4549 178.823 75.4423 173.003C70.9894 167.832 68.1055 161.549 68.2187 154.842C68.2316 154.076 68.5055 153.436 68.9268 152.94C69.3804 152.406 70.014 152.039 70.6926 151.88C71.3906 151.716 72.1285 151.774 72.7568 152.059C73.3256 152.318 73.8129 152.757 74.1176 153.398C74.8879 154.41 75.6553 155.407 76.4257 156.376C82.6196 164.024 88.618 169.74 97.9319 171.79C102.985 172.903 108.032 172.409 112.663 170.712C117.62 168.895 122.102 165.7 125.613 161.612C127.2 159.765 129.074 159.011 130.905 158.998C132.982 158.983 135.034 159.948 136.579 161.49C138.099 163.006 139.116 165.065 139.209 167.219C139.29 169.11 138.673 171.085 137.032 172.848C131.626 178.652 124.621 182.904 117.042 185.1Z" transform="translate(54.00004 55.05923)" fill="#000000" fill-rule="evenodd" stroke="none"></path></g></g><g transform="translate(123 338)"><g><path d="M57.4005 3.42841C64.6505 1.69041 84.6205 -2.68059 95.7415 2.32841C108.247 -2.15859 132.409 2.27041 146.695 13.1914C159.748 23.1704 164.542 47.8034 152.83 49.3394C146.82 50.1278 142.779 48.1512 138.106 45.8656C135.181 44.4347 132.008 42.8828 127.95 41.8124C115.573 38.5464 100.237 36.5274 93.4465 32.7924C84.1465 38.0664 73.6755 39.4194 63.7495 40.9694C58.8906 41.7217 53.7682 43.3334 48.6268 44.951C40.8306 47.404 32.9907 49.8707 25.9595 49.3754C24.2265 50.1684 12.4445 45.3134 18.3495 29.8904C23.5895 16.2054 40.5455 7.47041 57.4005 3.42841ZM106.754 85.109C107.748 94.2859 109.415 109.689 117.761 107.654C124.018 106.128 136.982 95.5207 144.652 91.4247C155.51 88.3318 159.242 93.9786 157.63 102.754C156.863 106.93 146.098 123.977 142.275 128.084C125.474 146.137 97.8637 153.49 74.2653 148.708C50.9963 146.91 -1.44122 127.033 0.0303418 120.343C3.35502 105.228 14.2105 108.644 24.5514 111.898C26.9282 112.646 29.2777 113.385 31.5023 113.889C41.6163 115.754 52.7443 116.403 62.3633 116.437C75.9374 113.479 73.4727 92.1514 72.5501 84.1674C72.4472 83.2774 72.3635 82.5532 72.3233 82.0387C71.7057 74.129 76.2826 61.4116 88.4583 60.7567C100.634 60.1018 105.437 75.2808 106.288 81.1667C106.443 82.2379 106.589 83.588 106.754 85.109Z" transform="translate(112.1728 28.99979)" fill="#000000" fill-rule="evenodd" stroke="none"></path></g></g><g transform="translate(47 241)"><g><path d="M400.241 22.4717C406.555 19.4817 413.812 19.6607 420.603 20.5487C434.349 26.9267 404.861 34.3147 401.349 27.5287C404.801 52.9717 394.935 94.8897 366.724 108.133C334.13 124.07 298.773 99.8287 300.056 60.9787C293.067 59.2817 297.925 39.7137 300.739 31.7647C288.447 29.8527 276.738 28.7257 264.894 32.4797C271.42 50.8857 248.187 106.288 225.854 117.325C208.541 129.283 169.496 123.951 153.944 105.365C142.844 91.1707 137.3 58.2287 143.442 35.3387C143.388 35.3147 143.332 35.2967 143.279 35.2697C142.912 38.8697 118.056 38.4687 119.298 32.3037C83.5946 32.9447 49.0266 38.4207 13.6856 42.2807C9.41771 42.6777 9.20869 45.7037 9.00443 48.6607C8.82951 51.1931 8.65807 53.675 5.94363 54.4117C-4.52237 54.6617 0.226628 36.3637 9.44663 34.6657C18.2509 33.7459 27.1162 32.5506 36.011 31.3514C64.1217 27.5615 92.5269 23.7319 120.232 28.4287C124.112 23.4993 131.1 25.2524 136.795 26.6809C138.398 27.083 139.898 27.4593 141.198 27.6537C145.902 -0.109269 221.595 1.54173 246.677 12.8057C273.452 9.72473 301.309 7.96173 327.861 5.72573C344.673 0.333732 364.25 -2.44827 381.745 2.80973C384.166 2.67632 384.439 3.06209 384.978 3.82285C385.074 3.95736 385.177 4.10358 385.303 4.26073C392.194 7.30073 398.297 14.2087 400.241 22.4717ZM391.09 53.2827C381.556 117.772 315.002 124.904 303.177 60.8817C305.075 60.0507 306.44 58.4147 306.155 55.2387C306.088 41.2867 310.419 26.5407 323.005 18.7817C336.011 10.7757 351.232 9.98173 366.283 10.1837C395.005 9.49973 394.401 33.5067 391.09 53.2827ZM264.265 30.6657C272.34 25.1737 283.744 24.8557 292.758 25.2357C295.861 25.4177 300.059 25.2717 302.99 26.8347C306.149 20.6497 311.009 15.2997 316.233 11.7387C313.192 11.9693 310.141 12.2092 307.085 12.4496C288.207 13.9342 269.092 15.4374 250.449 14.8917C256.277 18.3047 262.045 24.6877 264.265 30.6657ZM253.026 60.1197C228.031 146.156 165.64 108.656 158.838 97.6297C146.569 79.3837 144.261 35.0297 154.948 23.1707C167.469 14.393 184.251 14.6491 199.84 14.8869C203.297 14.9396 206.695 14.9915 209.975 14.9437C243.176 15.3917 266.756 25.3237 253.026 60.1197Z" transform="translate(-1.999528 9.999668)" fill="#000000" fill-rule="evenodd" stroke="none"></path></g></g></g></g></svg>